<svg version="1.1" viewBox="0.0 0.0 960.0 540.0" fill="none" stroke="none" stroke-linecap="square" stroke-miterlimit="10" xmlns:xlink="http://www.w3.org/1999/xlink" xmlns="http://www.w3.org/2000/svg"><clipPath id="p.0"><path d="m0 0l960.0 0l0 540.0l-960.0 0l0 -540.0z" clip-rule="nonzero"/></clipPath><g clip-path="url(#p.0)"><path fill="#ffffff" d="m0 0l960.0 0l0 540.0l-960.0 0z" fill-rule="evenodd"/><path fill="#000000" fill-opacity="0.0" d="m449.16534 288.83597l61.66931 0" fill-rule="evenodd"/><path stroke="#4285f4" stroke-width="8.0" stroke-linejoin="round" stroke-linecap="butt" d="m449.16534 288.83597l61.66931 0" fill-rule="evenodd"/><path fill="#000000" fill-opacity="0.0" d="m32.72441 62.569553l894.55115 0l0 205.5433l-894.55115 0z" fill-rule="evenodd"/><path fill="#ff5722" d="m229.4734 144.42035l3.609375 0l0 -32.390617l-3.609375 0l0 -11.8125l33.04686 0q9.0 0 14.03125 3.671875q5.046875 3.671875 5.046875 10.515625q0 4.25 -2.015625 7.171875q-2.015625 2.90625 -4.71875 4.390625q-2.6875 1.46875 -5.21875 1.96875l0 0.7187424q5.125 0.5 9.21875 3.25q4.109375 2.734375 4.109375 9.78125q0 7.5625 -5.6875 11.0625q-5.6875 3.484375 -14.765625 3.484375l-33.04686 0l0 -11.8125zm27.656235 -20.593742q2.078125 0 3.125 -1.109375q1.046875 -1.109375 1.046875 -3.5l0 -2.578125q0 -2.375 -1.046875 -3.484375q-1.046875 -1.125 -3.125 -1.125l-3.8906097 0l0 11.796875l3.8906097 0zm0.5 20.593742q2.09375 0 3.125 -1.109375q1.046875 -1.125 1.046875 -3.5l0 -3.15625q0 -2.375 -1.046875 -3.484375q-1.03125 -1.125 -3.125 -1.125l-4.3906097 0l0 12.375l4.3906097 0zm58.253143 -29.234367q1.4375 0 2.734375 0.296875q1.296875 0.28125 2.15625 0.71875l0 13.749992q-2.953125 -1.21875 -6.34375 -1.21875q-4.53125 0 -6.984375 2.375q-2.4375 2.375 -2.4375 7.046875l0 6.265625l6.46875 0l0 11.8125l-26.203125 0l0 -11.8125l3.171875 0l0 -16.40625l-3.171875 0l0 -11.812492l19.734375 0l0 5.25q2.015625 -3.015625 4.609375 -4.640625q2.59375 -1.625 6.265625 -1.625zm28.647156 42.062492q-10.21875 0 -15.984375 -5.359375q-5.75 -5.375 -5.75 -15.671875q0 -10.296867 5.75 -15.656242q5.765625 -5.375 15.984375 -5.375q10.15625 0 14.65625 5.296875q4.5 5.296875 4.5 13.140617l0 5.1875l-23.328125 0l0 0.4375q0 2.65625 1.578125 3.921875q1.59375 1.25 5.265625 1.25q4.390625 0 8.34375 -0.640625q3.96875 -0.65625 6.921875 -1.65625l0 11.515625q-2.53125 1.375 -7.390625 2.5q-4.859375 1.109375 -10.546875 1.109375zm4.171875 -26.359375l0 -0.859375q0 -2.4531174 -1.046875 -3.5312424q-1.03125 -1.078125 -3.125 -1.078125q-2.09375 0 -3.140625 1.125q-1.03125 1.109375 -1.03125 3.4843674l0 0.859375l8.34375 0zm59.111755 13.53125l0 11.8125l-19.0 0l0 -4.890625q-1.578125 2.296875 -4.4375 4.109375q-2.84375 1.796875 -6.9375 1.796875q-5.40625 0 -8.5 -2.875q-3.09375 -2.890625 -3.09375 -8.15625q0 -13.59375 23.109375 -13.953125q-0.21875 -2.453125 -1.875 -3.34375q-1.65625 -0.90625 -5.609375 -0.90625q-3.234375 0 -6.953125 0.6875q-3.703125 0.671875 -6.796875 1.828125l0 -13.249992q3.8125 -0.9375 8.265625 -1.515625q4.46875 -0.578125 8.71875 -0.578125q10.734375 0 15.34375 3.890625q4.609375 3.890625 4.609375 12.031242l0 13.3125l3.15625 0zm-19.0 -5.03125q-3.234375 0 -5.0 0.859375q-1.765625 0.859375 -1.765625 2.875q0 1.234375 0.75 1.984375q0.765625 0.75 2.125 0.75q1.875 0 2.875 -1.578125q1.015625 -1.578125 1.015625 -4.46875l0 -0.421875zm64.733154 5.03125l3.09375 0l0 11.8125l-17.640625 0l-7.421875 -13.828125l-1.71875 0l0 13.828125l-19.734375 0l0 -11.8125l3.171875 0l0 -32.390617l-3.171875 0l0 -11.8125l19.734375 0l0 29.234367l1.71875 0l8.9375 -13.249992l15.1875 0l0 11.812492l-2.953125 0l-6.125 6.828125l6.921875 9.578125zm26.84726 12.828125q-10.21875 0 -15.984375 -5.359375q-5.75 -5.375 -5.75 -15.671875q0 -10.296867 5.75 -15.656242q5.765625 -5.375 15.984375 -5.375q10.375 0 16.0625 5.4375q5.6875 5.4375 5.6875 15.593742q0 10.296875 -5.765625 15.671875q-5.765625 5.359375 -15.984375 5.359375zm0 -12.828125q2.09375 0 3.125 -1.109375q1.046875 -1.125 1.046875 -3.5l0 -7.1875q0 -2.375 -1.046875 -3.484375q-1.03125 -1.125 -3.125 -1.125q-2.09375 0 -3.140625 1.125q-1.03125 1.109375 -1.03125 3.484375l0 7.1875q0 2.375 1.03125 3.5q1.046875 1.109375 3.140625 1.109375zm71.4259 0l0 11.8125l-19.734375 0l0 -5.609375q-5.171875 6.625 -12.953125 6.625q-5.96875 0 -8.96875 -3.75q-2.984375 -3.75 -2.984375 -10.296875l0 -15.1875l-3.171875 0l0 -11.812492l19.734375 0l0 23.609367q0 2.375 1.046875 3.5q1.046875 1.109375 3.125 1.109375q2.09375 0 3.125 -1.109375q1.046875 -1.125 1.046875 -3.5l0 -11.796875l-3.875 0l0 -11.812492l20.4375 0l0 28.218742l3.171875 0zm19.79834 12.828125q-7.625 0 -11.484375 -3.703125q-3.84375 -3.71875 -3.84375 -12.5l0 -13.03125l-3.171875 0l0 -11.812492q2.734375 0 4.09375 -1.40625q1.375 -1.40625 1.375 -3.84375l0 -3.25l15.265625 0l0 8.5l9.71875 0l0 11.812492l-9.71875 0l0 11.796875q0 2.375 1.046875 3.5q1.046875 1.109375 3.125 1.109375q2.734375 0 5.984375 -0.640625l0 11.296875q-2.015625 0.796875 -5.4375 1.484375q-3.421875 0.6875 -6.953125 0.6875zm54.07202 0q-7.625 0 -11.484375 -3.703125q-3.84375 -3.71875 -3.84375 -12.5l0 -13.03125l-3.171875 0l0 -11.812492q2.734375 0 4.09375 -1.40625q1.375 -1.40625 1.375 -3.84375l0 -3.25l15.265625 0l0 8.5l9.71875 0l0 11.812492l-9.71875 0l0 11.796875q0 2.375 1.046875 3.5q1.046875 1.109375 3.125 1.109375q2.734375 0 5.984375 -0.640625l0 11.296875q-2.015625 0.796875 -5.4375 1.484375q-3.421875 0.6875 -6.953125 0.6875zm62.503235 -12.828125l0 11.8125l-22.75 0l0 -11.8125l3.015625 0l0 -11.796875q0 -2.375 -1.015625 -3.484375q-1.0 -1.125 -3.015625 -1.125q-4.3125 0 -4.3125 4.609375l0 11.796875l3.015625 0l0 11.8125l-22.75 0l0 -11.8125l3.171875 0l0 -32.390617l-3.171875 0l0 -11.8125l19.734375 0l0 21.59375q2.65625 -3.3125 5.75 -4.96875q3.09375 -1.65625 7.203125 -1.65625q5.96875 0 8.953125 3.75q3.0 3.75 3.0 10.296867l0 15.1875l3.171875 0zm23.752625 12.828125q-10.21875 0 -15.984375 -5.359375q-5.75 -5.375 -5.75 -15.671875q0 -10.296867 5.75 -15.656242q5.765625 -5.375 15.984375 -5.375q10.15625 0 14.65625 5.296875q4.5 5.296875 4.5 13.140617l0 5.1875l-23.328125 0l0 0.4375q0 2.65625 1.578125 3.921875q1.59375 1.25 5.265625 1.25q4.390625 0 8.34375 -0.640625q3.96875 -0.65625 6.921875 -1.65625l0 11.515625q-2.53125 1.375 -7.390625 2.5q-4.859375 1.109375 -10.546875 1.109375zm4.171875 -26.359375l0 -0.859375q0 -2.4531174 -1.046875 -3.5312424q-1.03125 -1.078125 -3.125 -1.078125q-2.09375 0 -3.140625 1.125q-1.03125 1.109375 -1.03125 3.4843674l0 0.859375l8.34375 0z" fill-rule="nonzero"/><path fill="#ff5722" d="m285.84943 230.42035l3.6093445 0l0 -32.390625l-3.6093445 0l0 -11.8125l33.046844 0q9.296875 0 14.1875 3.8125q4.890625 3.8125 4.890625 12.390625q0 4.828125 -1.9375 8.359375q-1.9375 3.515625 -5.546875 4.890625l0.078125 0.71875q6.90625 1.078125 6.90625 8.484375l0 5.546875l3.390625 0l0 11.8125l-22.828125 0l0 -16.921875q0 -2.8125 -0.828125 -4.25q-0.828125 -1.4375 -2.59375 -1.9375q-1.765625 -0.5 -5.0 -0.5l0 11.796875l4.75 0l0 11.8125l-28.515594 0l0 -11.8125zm27.65622 -20.59375q2.078125 0 3.125 -1.109375q1.046875 -1.109375 1.046875 -3.5l0 -2.578125q0 -2.375 -1.046875 -3.484375q-1.046875 -1.125 -3.125 -1.125l-3.890625 0l0 11.796875l3.890625 0zm51.256287 33.421875q-10.21875 0 -15.984375 -5.359375q-5.75 -5.375 -5.75 -15.671875q0 -10.296875 5.75 -15.65625q5.765625 -5.375 15.984375 -5.375q10.15625 0 14.65625 5.296875q4.5 5.296875 4.5 13.140625l0 5.1875l-23.328125 0l0 0.4375q0 2.65625 1.578125 3.921875q1.59375 1.25 5.265625 1.25q4.390625 0 8.34375 -0.640625q3.96875 -0.65625 6.921875 -1.65625l0 11.515625q-2.53125 1.375 -7.390625 2.5q-4.859375 1.109375 -10.546875 1.109375zm4.171875 -26.359375l0 -0.859375q0 -2.453125 -1.046875 -3.53125q-1.03125 -1.078125 -3.125 -1.078125q-2.09375 0 -3.140625 1.125q-1.03125 1.109375 -1.03125 3.484375l0 0.859375l8.34375 0zm34.643005 26.359375q-9.078125 0 -17.5 -2.890625l0 -10.65625l11.65625 0l0 0.71875q0 3.453125 4.40625 3.453125q3.875 0 3.875 -2.65625q0 -1.4375 -1.109375 -2.15625q-1.109375 -0.71875 -3.921875 -1.234375l-3.609375 -0.640625q-11.296875 -2.015625 -11.296875 -12.8125q0 -6.265625 4.75 -9.71875q4.75 -3.46875 12.8125 -3.46875q9.0 0 15.203125 3.03125l0 10.0l-10.953125 0l0 -0.71875q0 -1.4375 -0.96875 -2.1875q-0.96875 -0.765625 -2.84375 -0.765625q-3.59375 0 -3.59375 2.3125q0 1.21875 1.0 1.875q1.015625 0.640625 3.671875 1.21875l4.109375 0.796875q6.40625 1.21875 9.140625 4.53125q2.734375 3.3125 2.734375 8.5q0 6.546875 -4.578125 10.015625q-4.5625 3.453125 -12.984375 3.453125zm41.321167 0q-10.21875 0 -15.984375 -5.359375q-5.75 -5.375 -5.75 -15.671875q0 -10.296875 5.75 -15.65625q5.765625 -5.375 15.984375 -5.375q10.375 0 16.0625 5.4375q5.6875 5.4375 5.6875 15.59375q0 10.296875 -5.765625 15.671875q-5.765625 5.359375 -15.984375 5.359375zm0 -12.828125q2.09375 0 3.125 -1.109375q1.046875 -1.125 1.046875 -3.5l0 -7.1875q0 -2.375 -1.046875 -3.484375q-1.03125 -1.125 -3.125 -1.125q-2.09375 0 -3.140625 1.125q-1.03125 1.109375 -1.03125 3.484375l0 7.1875q0 2.375 1.03125 3.5q1.046875 1.109375 3.140625 1.109375zm71.42587 0l0 11.8125l-19.734375 0l0 -5.609375q-5.171875 6.625 -12.953125 6.625q-5.96875 0 -8.96875 -3.75q-2.984375 -3.75 -2.984375 -10.296875l0 -15.1875l-3.171875 0l0 -11.8125l19.734375 0l0 23.609375q0 2.375 1.046875 3.5q1.046875 1.109375 3.125 1.109375q2.09375 0 3.125 -1.109375q1.046875 -1.125 1.046875 -3.5l0 -11.796875l-3.875 0l0 -11.8125l20.4375 0l0 28.21875l3.171875 0zm32.76703 -29.234375q1.4375 0 2.734375 0.296875q1.296875 0.28125 2.15625 0.71875l0 13.75q-2.953125 -1.21875 -6.34375 -1.21875q-4.53125 0 -6.984375 2.375q-2.4375 2.375 -2.4375 7.046875l0 6.265625l6.46875 0l0 11.8125l-26.203125 0l0 -11.8125l3.171875 0l0 -16.40625l-3.171875 0l0 -11.8125l19.734375 0l0 5.25q2.015625 -3.015625 4.609375 -4.640625q2.59375 -1.625 6.265625 -1.625zm28.72528 42.0625q-10.296875 0 -16.0625 -5.359375q-5.75 -5.375 -5.75 -15.671875q0 -10.296875 5.75 -15.65625q5.765625 -5.375 15.984375 -5.375q4.96875 0 9.5 1.375q4.546875 1.375 7.0625 3.09375l0 14.265625l-12.390625 0l0 -1.296875q0 -2.375 -1.015625 -3.484375q-1.0 -1.125 -3.15625 -1.125q-4.171875 0 -4.171875 4.609375l0 6.1875q0 5.609375 6.40625 5.609375q5.96875 0 13.890625 -1.296875l0 11.3125q-2.4375 1.078125 -6.875 1.9375q-4.421875 0.875 -9.171875 0.875zm40.385925 0q-10.21875 0 -15.984375 -5.359375q-5.75 -5.375 -5.75 -15.671875q0 -10.296875 5.75 -15.65625q5.765625 -5.375 15.984375 -5.375q10.15625 0 14.65625 5.296875q4.5 5.296875 4.5 13.140625l0 5.1875l-23.328125 0l0 0.4375q0 2.65625 1.578125 3.921875q1.59375 1.25 5.265625 1.25q4.390625 0 8.34375 -0.640625q3.96875 -0.65625 6.921875 -1.65625l0 11.515625q-2.53125 1.375 -7.390625 2.5q-4.859375 1.109375 -10.546875 1.109375zm4.171875 -26.359375l0 -0.859375q0 -2.453125 -1.046875 -3.53125q-1.03125 -1.078125 -3.125 -1.078125q-2.09375 0 -3.140625 1.125q-1.03125 1.109375 -1.03125 3.484375l0 0.859375l8.34375 0zm34.643005 26.359375q-9.078125 0 -17.5 -2.890625l0 -10.65625l11.65625 0l0 0.71875q0 3.453125 4.40625 3.453125q3.875 0 3.875 -2.65625q0 -1.4375 -1.109375 -2.15625q-1.109375 -0.71875 -3.921875 -1.234375l-3.609375 -0.640625q-11.296875 -2.015625 -11.296875 -12.8125q0 -6.265625 4.75 -9.71875q4.75 -3.46875 12.8125 -3.46875q9.0 0 15.203125 3.03125l0 10.0l-10.953125 0l0 -0.71875q0 -1.4375 -0.96875 -2.1875q-0.96875 -0.765625 -2.84375 -0.765625q-3.59375 0 -3.59375 2.3125q0 1.21875 1.0 1.875q1.015625 0.640625 3.671875 1.21875l4.109375 0.796875q6.40625 1.21875 9.140625 4.53125q2.734375 3.3125 2.734375 8.5q0 6.546875 -4.578125 10.015625q-4.5625 3.453125 -12.984375 3.453125z" fill-rule="nonzero"/><path fill="#000000" fill-opacity="0.0" d="m32.72441 332.36987l894.55115 0l0 77.00787l-894.55115 0z" fill-rule="evenodd"/><path fill="#666666" d="m439.22592 396.73776l0 -10.671875l1.328125 0l0 9.484375l4.953125 0l0 1.1875l-6.28125 0zm12.941284 0l0 -0.875q-0.96875 1.0625 -2.5625 1.0625q-1.171875 0 -1.9375 -0.734375q-0.765625 -0.734375 -0.765625 -1.828125q0 -1.109375 0.75 -1.8125q0.765625 -0.71875 1.953125 -0.71875q1.671875 0 2.5625 1.046875l0 -1.390625q0 -0.78125 -0.5625 -1.203125q-0.546875 -0.421875 -1.390625 -0.421875q-1.359375 0 -2.359375 1.0625l-0.5625 -0.828125q1.234375 -1.28125 3.078125 -1.28125q1.421875 0 2.203125 0.6875q0.796875 0.6875 0.796875 1.921875l0 5.3125l-1.203125 0zm-2.125 -0.671875q1.421875 0 2.125 -0.953125l0 -1.46875q-0.703125 -0.953125 -2.125 -0.953125q-0.84375 0 -1.375 0.46875q-0.53125 0.46875 -0.53125 1.21875q0 0.75 0.53125 1.21875q0.53125 0.46875 1.375 0.46875zm10.947632 0.671875l0 -1.09375q-0.453125 0.515625 -1.171875 0.90625q-0.71875 0.375 -1.59375 0.375q-2.453125 0 -2.453125 -2.453125l0 -5.46875l1.203125 0l0 5.09375q0 0.90625 0.40625 1.34375q0.421875 0.421875 1.3125 0.421875q0.703125 0 1.328125 -0.34375q0.625 -0.359375 0.96875 -0.828125l0 -5.6875l1.1875 0l0 7.734375l-1.1875 0zm3.59729 0l0 -7.734375l1.203125 0l0 1.25q1.0625 -1.40625 2.5625 -1.40625l0 1.234375l-0.46875 -0.046875q-0.546875 0 -1.203125 0.390625q-0.65625 0.390625 -0.890625 0.84375l0 5.46875l-1.203125 0zm10.108124 0l0 -0.875q-0.96875 1.0625 -2.5625 1.0625q-1.171875 0 -1.9375 -0.734375q-0.765625 -0.734375 -0.765625 -1.828125q0 -1.109375 0.75 -1.8125q0.765625 -0.71875 1.953125 -0.71875q1.671875 0 2.5625 1.046875l0 -1.390625q0 -0.78125 -0.5625 -1.203125q-0.546875 -0.421875 -1.390625 -0.421875q-1.359375 0 -2.359375 1.0625l-0.5625 -0.828125q1.234375 -1.28125 3.078125 -1.28125q1.421875 0 2.203125 0.6875q0.796875 0.6875 0.796875 1.921875l0 5.3125l-1.203125 0zm-2.125 -0.671875q1.421875 0 2.125 -0.953125l0 -1.46875q-0.703125 -0.953125 -2.125 -0.953125q-0.84375 0 -1.375 0.46875q-0.53125 0.46875 -0.53125 1.21875q0 0.75 0.53125 1.21875q0.53125 0.46875 1.375 0.46875zm14.763153 0.859375q-2.34375 0 -3.828125 -1.5625q-1.46875 -1.5625 -1.46875 -3.953125q0 -2.40625 1.484375 -3.953125q1.484375 -1.5625 3.8125 -1.5625q2.359375 0 3.828125 1.5625q1.46875 1.5625 1.46875 3.953125q0 2.40625 -1.46875 3.9375l1.015625 1.09375l-0.921875 0.796875l-1.046875 -1.109375q-1.25 0.796875 -2.875 0.796875zm0 -1.171875q1.140625 0 2.03125 -0.546875l-1.515625 -1.65625l0.921875 -0.78125l1.515625 1.625q0.96875 -1.203125 0.96875 -2.984375q0 -1.921875 -1.09375 -3.125q-1.078125 -1.203125 -2.828125 -1.203125q-1.71875 0 -2.828125 1.1875q-1.09375 1.171875 -1.09375 3.140625q0 1.921875 1.078125 3.140625q1.09375 1.203125 2.84375 1.203125zm12.552521 0.984375l0 -1.09375q-0.453125 0.515625 -1.171875 0.90625q-0.71875 0.375 -1.59375 0.375q-2.453125 0 -2.453125 -2.453125l0 -5.46875l1.203125 0l0 5.09375q0 0.90625 0.40625 1.34375q0.421875 0.421875 1.3125 0.421875q0.703125 0 1.328125 -0.34375q0.625 -0.359375 0.96875 -0.828125l0 -5.6875l1.1875 0l0 7.734375l-1.1875 0zm4.1910095 -8.828125q-0.328125 0 -0.578125 -0.234375q-0.234375 -0.234375 -0.234375 -0.5625q0 -0.34375 0.234375 -0.578125q0.25 -0.25 0.578125 -0.25q0.328125 0 0.5625 0.25q0.25 0.234375 0.25 0.578125q0 0.328125 -0.25 0.5625q-0.234375 0.234375 -0.5625 0.234375zm-0.59375 8.828125l0 -7.734375l1.203125 0l0 7.734375l-1.203125 0zm7.0062866 0.1875q-1.703125 0 -2.78125 -1.140625q-1.078125 -1.15625 -1.078125 -2.921875q0 -1.734375 1.078125 -2.890625q1.078125 -1.15625 2.78125 -1.15625q1.7969055 0 2.8281555 1.34375l-0.796875 0.734375q-0.7344055 -1.0 -1.9687805 -1.0q-1.1875 0 -1.9375 0.828125q-0.734375 0.8125 -0.734375 2.140625q0 1.34375 0.734375 2.171875q0.734375 0.828125 1.9375 0.828125q1.21875 0 1.9687805 -1.015625l0.796875 0.734375q-1.03125 1.34375 -2.8281555 1.34375zm9.779388 -0.1875l-2.78125 -3.46875l-1.28125 1.265625l0 2.203125l-1.203125 0l0 -10.671875l1.203125 0l0 7.0625l4.0625 -4.125l1.515625 0l-3.421875 3.515625l3.4375 4.21875l-1.53125 0z" fill-rule="nonzero"/></g></svg>