<svg version="1.1" viewBox="0.0 0.0 960.0 540.0" fill="none" stroke="none" stroke-linecap="square" stroke-miterlimit="10" xmlns:xlink="http://www.w3.org/1999/xlink" xmlns="http://www.w3.org/2000/svg"><clipPath id="g28a3e7b632_0_63.0"><path d="m0 0l960.0 0l0 540.0l-960.0 0l0 -540.0z" clip-rule="nonzero"/></clipPath><g clip-path="url(#g28a3e7b632_0_63.0)"><path fill="#ffffff" d="m0 0l960.0 0l0 540.0l-960.0 0z" fill-rule="evenodd"/><path fill="#000000" fill-opacity="0.0" d="m32.72441 46.721786l894.55115 0l0 60.125984l-894.55115 0z" fill-rule="evenodd"/><path fill="#ff5722" d="m42.521286 87.55928l2.0 0l0 -18.0l-2.0 0l0 -6.562496l17.5625 0q5.15625 0 7.875 2.2187462q2.71875 2.21875 2.71875 7.1875q0 4.953125 -2.71875 7.1875q-2.71875 2.21875 -7.875 2.21875l-4.359375 0l0 5.75l3.84375 0l0 6.5625l-17.046875 0l0 -6.5625zm14.5625 -11.4375q2.328125 0 2.328125 -2.5625l0 -1.4375q0 -1.3125 -0.59375 -1.9375q-0.578125 -0.625 -1.734375 -0.625l-1.359375 0l0 6.5625l1.359375 0zm14.879349 18.046875l0 -6.609375l1.765625 0l0 -18.0l-1.765625 0l0 -6.562496l10.96875 0l0 24.562496l1.75 0l0 6.609375l-12.71875 0zm25.92186 0.515625q-5.6875 0 -8.890625 -2.984375q-3.1875 -2.984375 -3.1875 -8.703125q0 -5.71875 3.1875 -8.6875q3.203125 -2.984375 8.890625 -2.984375q5.640625 0 8.140625 2.9375q2.5 2.9375 2.5 7.296875l0 2.875l-12.96875 0l0 0.25q0 1.484375 0.875 2.1875q0.890625 0.6875 2.9375 0.6875q2.4375 0 4.625 -0.359375q2.203125 -0.359375 3.84375 -0.921875l0 6.40625q-1.390625 0.75 -4.09375 1.375q-2.703125 0.625 -5.859375 0.625zm2.3125 -14.640625l0 -0.484375q0 -1.359375 -0.578125 -1.953125q-0.578125 -0.609375 -1.734375 -0.609375q-1.15625 0 -1.75 0.625q-0.578125 0.625 -0.578125 1.9375l0 0.484375l4.640625 0zm32.85373 7.515625l0 6.5625l-10.5625 0l0 -2.71875q-0.890625 1.28125 -2.46875 2.28125q-1.578125 1.0 -3.859375 1.0q-3.0 0 -4.71875 -1.59375q-1.71875 -1.609375 -1.71875 -4.53125q0 -7.5625 12.84375 -7.75q-0.125 -1.375 -1.046875 -1.875q-0.921875 -0.5 -3.109375 -0.5q-1.8125 0 -3.875 0.390625q-2.046875 0.375 -3.765625 1.015625l0 -7.359375q2.109375 -0.515625 4.59375 -0.828125q2.484375 -0.328125 4.84375 -0.328125q5.953125 0 8.515625 2.15625q2.5625 2.15625 2.5625 6.6875l0 7.390625l1.765625 0zm-10.5625 -2.796875q-1.796875 0 -2.78125 0.484375q-0.984375 0.46875 -0.984375 1.59375q0 0.6875 0.421875 1.109375q0.421875 0.40625 1.171875 0.40625q1.046875 0 1.609375 -0.875q0.5625 -0.875 0.5625 -2.484375l0 -0.234375zm21.5531 9.921875q-5.03125 0 -9.71875 -1.609375l0 -5.90625l6.484375 0l0 0.390625q0 1.921875 2.4375 1.921875q2.15625 0 2.15625 -1.484375q0 -0.796875 -0.625 -1.1875q-0.609375 -0.40625 -2.171875 -0.6875l-2.0 -0.359375q-6.28125 -1.125 -6.28125 -7.125q0 -3.46875 2.640625 -5.390625q2.640625 -1.921875 7.125 -1.921875q5.0 0 8.4375 1.671875l0 5.5625l-6.078125 0l0 -0.390625q0 -0.8125 -0.546875 -1.21875q-0.53125 -0.421875 -1.578125 -0.421875q-2.0 0 -2.0 1.28125q0 0.671875 0.5625 1.03125q0.5625 0.359375 2.03125 0.6875l2.28125 0.4375q3.5625 0.671875 5.078125 2.515625q1.53125 1.84375 1.53125 4.71875q0 3.640625 -2.546875 5.5625q-2.53125 1.921875 -7.21875 1.921875zm22.963104 0q-5.6875 0 -8.890625 -2.984375q-3.1875 -2.984375 -3.1875 -8.703125q0 -5.71875 3.1875 -8.6875q3.203125 -2.984375 8.890625 -2.984375q5.640625 0 8.140625 2.9375q2.5 2.9375 2.5 7.296875l0 2.875l-12.96875 0l0 0.25q0 1.484375 0.875 2.1875q0.890625 0.6875 2.9375 0.6875q2.4375 0 4.625 -0.359375q2.203125 -0.359375 3.84375 -0.921875l0 6.40625q-1.390625 0.75 -4.09375 1.375q-2.703125 0.625 -5.859375 0.625zm2.3125 -14.640625l0 -0.484375q0 -1.359375 -0.578125 -1.953125q-0.578125 -0.609375 -1.734375 -0.609375q-1.15625 0 -1.75 0.625q-0.578125 0.625 -0.578125 1.9375l0 0.484375l4.640625 0zm31.400589 14.640625q-4.234375 0 -6.375 -2.0625q-2.140625 -2.0625 -2.140625 -6.9375l0 -7.25l-1.765625 0l0 -6.546875q1.53125 0 2.28125 -0.78125q0.765625 -0.78125 0.765625 -2.140625l0 -1.796875l8.484375 0l0 4.71875l5.390625 0l0 6.546875l-5.390625 0l0 6.5625q0 1.328125 0.578125 1.953125q0.578125 0.609375 1.734375 0.609375q1.53125 0 3.328125 -0.359375l0 6.28125q-1.125 0.4375 -3.03125 0.8125q-1.890625 0.390625 -3.859375 0.390625zm31.493103 -7.125l0 6.5625l-10.5625 0l0 -2.71875q-0.890625 1.28125 -2.46875 2.28125q-1.578125 1.0 -3.859375 1.0q-3.0 0 -4.71875 -1.59375q-1.71875 -1.609375 -1.71875 -4.53125q0 -7.5625 12.84375 -7.75q-0.125 -1.375 -1.046875 -1.875q-0.921875 -0.5 -3.109375 -0.5q-1.8125 0 -3.875 0.390625q-2.046875 0.375 -3.765625 1.015625l0 -7.359375q2.109375 -0.515625 4.59375 -0.828125q2.484375 -0.328125 4.84375 -0.328125q5.953125 0 8.515625 2.15625q2.5625 2.15625 2.5625 6.6875l0 7.390625l1.765625 0zm-10.5625 -2.796875q-1.796875 0 -2.78125 0.484375q-0.984375 0.46875 -0.984375 1.59375q0 0.6875 0.421875 1.109375q0.421875 0.40625 1.171875 0.40625q1.046875 0 1.609375 -0.875q0.5625 -0.875 0.5625 -2.484375l0 -0.234375zm35.95935 2.796875l1.71875 0l0 6.5625l-9.796875 0l-4.125 -7.6875l-0.953125 0l0 7.6875l-10.96875 0l0 -6.5625l1.765625 0l0 -18.0l-1.765625 0l0 -6.562496l10.96875 0l0 16.249996l0.953125 0l4.953125 -7.359375l8.453125 0l0 6.546875l-1.640625 0l-3.40625 3.8125l3.84375 5.3125zm14.91684 7.125q-5.6875 0 -8.890625 -2.984375q-3.1875 -2.984375 -3.1875 -8.703125q0 -5.71875 3.1875 -8.6875q3.203125 -2.984375 8.890625 -2.984375q5.640625 0 8.140625 2.9375q2.5 2.9375 2.5 7.296875l0 2.875l-12.96875 0l0 0.25q0 1.484375 0.875 2.1875q0.890625 0.6875 2.9375 0.6875q2.4375 0 4.625 -0.359375q2.203125 -0.359375 3.84375 -0.921875l0 6.40625q-1.390625 0.75 -4.09375 1.375q-2.703125 0.625 -5.859375 0.625zm2.3125 -14.640625l0 -0.484375q0 -1.359375 -0.578125 -1.953125q-0.578125 -0.609375 -1.734375 -0.609375q-1.15625 0 -1.75 0.625q-0.578125 0.625 -0.578125 1.9375l0 0.484375l4.640625 0zm31.400574 14.640625q-4.234375 0 -6.375 -2.0625q-2.140625 -2.0625 -2.140625 -6.9375l0 -7.25l-1.765625 0l0 -6.546875q1.53125 0 2.28125 -0.78125q0.765625 -0.78125 0.765625 -2.140625l0 -1.796875l8.484375 0l0 4.71875l5.390625 0l0 6.546875l-5.390625 0l0 6.5625q0 1.328125 0.578125 1.953125q0.578125 0.609375 1.734375 0.609375q1.53125 0 3.328125 -0.359375l0 6.28125q-1.125 0.4375 -3.03125 0.8125q-1.890625 0.390625 -3.859375 0.390625zm34.727478 -7.125l0 6.5625l-12.640625 0l0 -6.5625l1.671875 0l0 -6.5625q0 -1.3125 -0.5625 -1.9375q-0.546875 -0.625 -1.671875 -0.625q-2.390625 0 -2.390625 2.5625l0 6.5625l1.671875 0l0 6.5625l-12.640625 0l0 -6.5625l1.765625 0l0 -18.0l-1.765625 0l0 -6.562496l10.96875 0l0 11.999996q1.46875 -1.828125 3.1875 -2.75q1.71875 -0.921875 4.0 -0.921875q3.328125 0 4.984375 2.078125q1.65625 2.078125 1.65625 5.71875l0 8.4375l1.765625 0zm3.1993408 -17.875l0 -6.687496l8.15625 0l0 6.687496l-8.15625 0zm-1.921875 24.4375l0 -6.5625l1.765625 0l0 -9.125l-1.765625 0l0 -6.546875l10.96875 0l0 15.671875l1.75 0l0 6.5625l-12.71875 0zm23.558716 0.5625q-5.03125 0 -9.71875 -1.609375l0 -5.90625l6.484375 0l0 0.390625q0 1.921875 2.4375 1.921875q2.15625 0 2.15625 -1.484375q0 -0.796875 -0.625 -1.1875q-0.609375 -0.40625 -2.171875 -0.6875l-2.0 -0.359375q-6.28125 -1.125 -6.28125 -7.125q0 -3.46875 2.640625 -5.390625q2.640625 -1.921875 7.125 -1.921875q5.0 0 8.4375 1.671875l0 5.5625l-6.078125 0l0 -0.390625q0 -0.8125 -0.546875 -1.21875q-0.53125 -0.421875 -1.578125 -0.421875q-2.0 0 -2.0 1.28125q0 0.671875 0.5625 1.03125q0.5625 0.359375 2.03125 0.6875l2.28125 0.4375q3.5625 0.671875 5.078125 2.515625q1.53125 1.84375 1.53125 4.71875q0 3.640625 -2.546875 5.5625q-2.53125 1.921875 -7.21875 1.921875zm32.75995 0q-5.03125 0 -9.71875 -1.609375l0 -5.90625l6.484375 0l0 0.390625q0 1.921875 2.4375 1.921875q2.15625 0 2.15625 -1.484375q0 -0.796875 -0.625 -1.1875q-0.609375 -0.40625 -2.171875 -0.6875l-2.0 -0.359375q-6.28125 -1.125 -6.28125 -7.125q0 -3.46875 2.640625 -5.390625q2.640625 -1.921875 7.125 -1.921875q5.0 0 8.4375 1.671875l0 5.5625l-6.078125 0l0 -0.390625q0 -0.8125 -0.546875 -1.21875q-0.53125 -0.421875 -1.578125 -0.421875q-2.0 0 -2.0 1.28125q0 0.671875 0.5625 1.03125q0.5625 0.359375 2.03125 0.6875l2.28125 0.4375q3.5625 0.671875 5.078125 2.515625q1.53125 1.84375 1.53125 4.71875q0 3.640625 -2.546875 5.5625q-2.53125 1.921875 -7.21875 1.921875zm37.60373 -7.125l0 6.5625l-12.640625 0l0 -6.5625l1.671875 0l0 -6.5625q0 -1.3125 -0.5625 -1.9375q-0.546875 -0.625 -1.671875 -0.625q-2.390625 0 -2.390625 2.5625l0 6.5625l1.671875 0l0 6.5625l-12.640625 0l0 -6.5625l1.765625 0l0 -18.0l-1.765625 0l0 -6.562496l10.96875 0l0 11.999996q1.46875 -1.828125 3.1875 -2.75q1.71875 -0.921875 4.0 -0.921875q3.328125 0 4.984375 2.078125q1.65625 2.078125 1.65625 5.71875l0 8.4375l1.765625 0zm13.199371 7.125q-5.6875 0 -8.890625 -2.984375q-3.1875 -2.984375 -3.1875 -8.703125q0 -5.71875 3.1875 -8.6875q3.203125 -2.984375 8.890625 -2.984375q5.765625 0 8.921875 3.015625q3.15625 3.015625 3.15625 8.65625q0 5.71875 -3.203125 8.703125q-3.203125 2.984375 -8.875 2.984375zm0 -7.125q1.15625 0 1.734375 -0.609375q0.578125 -0.625 0.578125 -1.953125l0 -4.0q0 -1.3125 -0.578125 -1.9375q-0.578125 -0.625 -1.734375 -0.625q-1.15625 0 -1.75 0.625q-0.578125 0.625 -0.578125 1.9375l0 4.0q0 1.328125 0.578125 1.953125q0.59375 0.609375 1.75 0.609375zm30.436218 -16.234375q0.796875 0 1.515625 0.15625q0.734375 0.15625 1.203125 0.40625l0 7.640625q-1.640625 -0.6875 -3.515625 -0.6875q-2.515625 0 -3.875 1.328125q-1.359375 1.3125 -1.359375 3.90625l0 3.484375l3.59375 0l0 6.5625l-14.5625 0l0 -6.5625l1.765625 0l0 -9.125l-1.765625 0l0 -6.546875l10.96875 0l0 2.921875q1.109375 -1.6875 2.546875 -2.578125q1.453125 -0.90625 3.484375 -0.90625zm13.876862 23.359375q-4.234375 0 -6.375 -2.0625q-2.140625 -2.0625 -2.140625 -6.9375l0 -7.25l-1.765625 0l0 -6.546875q1.53125 0 2.28125 -0.78125q0.765625 -0.78125 0.765625 -2.140625l0 -1.796875l8.484375 0l0 4.71875l5.390625 0l0 6.546875l-5.390625 0l0 6.5625q0 1.328125 0.578125 1.953125q0.578125 0.609375 1.734375 0.609375q1.53125 0 3.328125 -0.359375l0 6.28125q-1.125 0.4375 -3.03125 0.8125q-1.890625 0.390625 -3.859375 0.390625zm29.883728 0q-5.03125 0 -9.71875 -1.609375l0 -5.90625l6.484375 0l0 0.390625q0 1.921875 2.4375 1.921875q2.15625 0 2.15625 -1.484375q0 -0.796875 -0.625 -1.1875q-0.609375 -0.40625 -2.171875 -0.6875l-2.0 -0.359375q-6.28125 -1.125 -6.28125 -7.125q0 -3.46875 2.640625 -5.390625q2.640625 -1.921875 7.125 -1.921875q5.0 0 8.4375 1.671875l0 5.5625l-6.078125 0l0 -0.390625q0 -0.8125 -0.546875 -1.21875q-0.53125 -0.421875 -1.578125 -0.421875q-2.0 0 -2.0 1.28125q0 0.671875 0.5625 1.03125q0.5625 0.359375 2.03125 0.6875l2.28125 0.4375q3.5625 0.671875 5.078125 2.515625q1.53125 1.84375 1.53125 4.71875q0 3.640625 -2.546875 5.5625q-2.53125 1.921875 -7.21875 1.921875zm37.369324 -7.125l0 6.5625l-10.96875 0l0 -3.125q-2.875 3.6875 -7.203125 3.6875q-3.3125 0 -4.984375 -2.078125q-1.65625 -2.078125 -1.65625 -5.71875l0 -8.453125l-1.75 0l0 -6.546875l10.953125 0l0 13.109375q0 1.328125 0.578125 1.953125q0.578125 0.609375 1.75 0.609375q1.15625 0 1.734375 -0.609375q0.578125 -0.625 0.578125 -1.953125l0 -6.5625l-2.15625 0l0 -6.546875l11.359375 0l0 15.671875l1.765625 0zm18.190002 -16.234375q0.796875 0 1.515625 0.15625q0.734375 0.15625 1.203125 0.40625l0 7.640625q-1.640625 -0.6875 -3.515625 -0.6875q-2.515625 0 -3.875 1.328125q-1.359375 1.3125 -1.359375 3.90625l0 3.484375l3.59375 0l0 6.5625l-14.5625 0l0 -6.5625l1.765625 0l0 -9.125l-1.765625 0l0 -6.546875l10.96875 0l0 2.921875q1.109375 -1.6875 2.546875 -2.578125q1.453125 -0.90625 3.484375 -0.90625zm10.408142 22.796875l-5.046875 -15.6875l-1.671875 0l0 -6.546875l12.359375 0l0 6.546875l-1.6875 0l2.125 7.921875l0.390625 0l2.125 -7.921875l-1.671875 0l0 -6.546875l11.59375 0l0 6.546875l-1.6875 0l-4.90625 15.6875l-11.921875 0zm31.555603 0.5625q-5.6875 0 -8.890625 -2.984375q-3.1875 -2.984375 -3.1875 -8.703125q0 -5.71875 3.1875 -8.6875q3.203125 -2.984375 8.890625 -2.984375q5.640625 0 8.140625 2.9375q2.5 2.9375 2.5 7.296875l0 2.875l-12.96875 0l0 0.25q0 1.484375 0.875 2.1875q0.890625 0.6875 2.9375 0.6875q2.4375 0 4.625 -0.359375q2.203125 -0.359375 3.84375 -0.921875l0 6.40625q-1.390625 0.75 -4.09375 1.375q-2.703125 0.625 -5.859375 0.625zm2.3125 -14.640625l0 -0.484375q0 -1.359375 -0.578125 -1.953125q-0.578125 -0.609375 -1.734375 -0.609375q-1.15625 0 -1.75 0.625q-0.578125 0.625 -0.578125 1.9375l0 0.484375l4.640625 0zm33.6037 -8.15625l0 6.546875l-1.515625 0l-5.234375 13.890625q-1.96875 5.234375 -4.484375 7.859375q-2.515625 2.625 -6.640625 2.625q-1.6875 0 -3.40625 -0.34375q-1.71875 -0.34375 -3.109375 -0.9375l0 -7.25l5.515625 0l0 0.40625q0 1.0 1.03125 1.0q0.921875 0 1.40625 -0.875l-6.3125 -16.375l-1.53125 0l0 -6.546875l11.890625 0l0 6.546875l-1.359375 0l2.078125 6.25l1.921875 -6.25l-1.359375 0l0 -6.546875l11.109375 0zm13.201843 15.671875l1.765625 0l0 -9.125l-1.765625 0l0 -6.546875l1.84375 0q0 -4.890625 2.375 -7.171875q2.375 -2.2812462 6.9375 -2.2812462q2.203125 0 3.9375 0.328125q1.75 0.3125 2.546875 0.71875l0 6.281246q-2.125 -0.203125 -3.921875 -0.203125q-1.5625 0 -2.15625 0.53125q-0.59375 0.515625 -0.59375 1.796875l3.109375 0l0 6.546875l-3.109375 0l0 9.125l3.109375 0l0 6.5625l-14.078125 0l0 -6.5625zm27.28186 7.125q-5.6875 0 -8.890625 -2.984375q-3.1875 -2.984375 -3.1875 -8.703125q0 -5.71875 3.1875 -8.6875q3.203125 -2.984375 8.890625 -2.984375q5.765625 0 8.921875 3.015625q3.15625 3.015625 3.15625 8.65625q0 5.71875 -3.203125 8.703125q-3.203125 2.984375 -8.875 2.984375zm0 -7.125q1.15625 0 1.734375 -0.609375q0.578125 -0.625 0.578125 -1.953125l0 -4.0q0 -1.3125 -0.578125 -1.9375q-0.578125 -0.625 -1.734375 -0.625q-1.15625 0 -1.75 0.625q-0.578125 0.625 -0.578125 1.9375l0 4.0q0 1.328125 0.578125 1.953125q0.59375 0.609375 1.75 0.609375zm30.436218 -16.234375q0.796875 0 1.515625 0.15625q0.734375 0.15625 1.203125 0.40625l0 7.640625q-1.640625 -0.6875 -3.515625 -0.6875q-2.515625 0 -3.875 1.328125q-1.359375 1.3125 -1.359375 3.90625l0 3.484375l3.59375 0l0 6.5625l-14.5625 0l0 -6.5625l1.765625 0l0 -9.125l-1.765625 0l0 -6.546875l10.96875 0l0 2.921875q1.109375 -1.6875 2.546875 -2.578125q1.453125 -0.90625 3.484375 -0.90625zm56.40808 16.234375l0 6.5625l-12.640625 0l0 -6.5625l1.671875 0l0 -6.5625q0 -1.3125 -0.5625 -1.9375q-0.546875 -0.625 -1.671875 -0.625q-2.40625 0 -2.40625 2.5625l0 6.5625l1.6875 0l0 6.5625l-12.5625 0l0 -6.5625l1.671875 0l0 -6.5625q0 -1.3125 -0.5625 -1.9375q-0.546875 -0.625 -1.671875 -0.625q-2.390625 0 -2.390625 2.5625l0 6.5625l1.671875 0l0 6.5625l-12.640625 0l0 -6.5625l1.765625 0l0 -9.125l-1.765625 0l0 -6.546875l10.96875 0l0 3.109375q2.875 -3.671875 7.1875 -3.671875q2.4375 0 3.984375 1.140625q1.546875 1.140625 2.1875 3.21875q1.4375 -2.078125 3.296875 -3.203125q1.859375 -1.125 4.375 -1.125q3.328125 0 4.984375 2.09375q1.65625 2.078125 1.65625 5.71875l0 8.390625l1.765625 0zm13.195557 7.125q-5.6875 0 -8.890625 -2.984375q-3.1875 -2.984375 -3.1875 -8.703125q0 -5.71875 3.1875 -8.6875q3.203125 -2.984375 8.890625 -2.984375q5.640625 0 8.140625 2.9375q2.5 2.9375 2.5 7.296875l0 2.875l-12.96875 0l0 0.25q0 1.484375 0.875 2.1875q0.890625 0.6875 2.9375 0.6875q2.4375 0 4.625 -0.359375q2.203125 -0.359375 3.84375 -0.921875l0 6.40625q-1.390625 0.75 -4.09375 1.375q-2.703125 0.625 -5.859375 0.625zm2.3125 -14.640625l0 -0.484375q0 -1.359375 -0.578125 -1.953125q-0.578125 -0.609375 -1.734375 -0.609375q-1.15625 0 -1.75 0.625q-0.578125 0.625 -0.578125 1.9375l0 0.484375l4.640625 0zm11.44751 5.3125l-1.84375 -20.359375l0 -1.9999962l11.96875 0l0 1.9999962l-1.890625 20.359375l-8.234375 0zm-0.40625 8.765625l0 -6.5625l9.046875 0l0 6.5625l-9.046875 0z" fill-rule="nonzero"/><path fill="#000000" fill-opacity="0.0" d="m32.72441 120.99475l894.55115 0l0 358.67715l-894.55115 0z" fill-rule="evenodd"/><path fill="#1c3aa9" d="m43.59941 153.03474l0 -16.015625l7.125 0q2.046875 0 3.265625 1.125q1.21875 1.109375 1.21875 2.96875q0 1.40625 -0.78125 2.390625q-0.78125 0.984375 -2.015625 1.28125q1.265625 0.1875 2.1875 1.34375q0.921875 1.140625 0.921875 2.59375q0 1.953125 -1.234375 3.140625q-1.234375 1.171875 -3.390625 1.171875l-7.296875 0zm6.78125 -9.078125q1.375 0 2.0625 -0.71875q0.703125 -0.734375 0.703125 -1.84375q0 -1.078125 -0.703125 -1.828125q-0.6875 -0.765625 -2.0625 -0.765625l-4.796875 0l0 5.15625l4.796875 0zm0.109375 7.296875q1.40625 0 2.1875 -0.71875q0.78125 -0.734375 0.78125 -2.03125q0 -1.234375 -0.8125 -2.0q-0.8125 -0.765625 -2.15625 -0.765625l-4.90625 0l0 5.515625l4.90625 0zm8.127213 1.78125l0 -11.59375l1.796875 0l0 1.875q1.609375 -2.109375 3.875 -2.109375l0 1.84375l-0.71875 -0.078125q-0.828125 0 -1.8125 0.59375q-0.984375 0.59375 -1.34375 1.265625l0 8.203125l-1.796875 0zm13.154358 0.28125q-2.609375 0 -4.265625 -1.703125q-1.640625 -1.703125 -1.640625 -4.390625q0 -2.5625 1.625 -4.3125q1.640625 -1.75 4.09375 -1.75q2.5 0 4.03125 1.734375q1.53125 1.71875 1.53125 4.484375l0 0.453125l-9.375 0q0.09375 1.765625 1.28125 2.890625q1.1875 1.109375 2.890625 1.109375q2.109375 0 3.578125 -1.453125l0.859375 1.171875q-1.78125 1.765625 -4.609375 1.765625zm3.59375 -6.8125q0 -1.609375 -1.0625 -2.734375q-1.046875 -1.125 -2.75 -1.125q-1.609375 0 -2.671875 1.125q-1.0625 1.125 -1.109375 2.734375l7.59375 0zm11.933838 6.53125l0 -1.3125q-1.46875 1.59375 -3.84375 1.59375q-1.75 0 -2.90625 -1.09375q-1.140625 -1.109375 -1.140625 -2.734375q0 -1.6875 1.140625 -2.75q1.140625 -1.078125 2.90625 -1.078125q2.5 0 3.84375 1.59375l0 -2.09375q0 -1.171875 -0.828125 -1.796875q-0.828125 -0.640625 -2.09375 -0.640625q-2.046875 0 -3.5625 1.59375l-0.828125 -1.234375q1.84375 -1.921875 4.625 -1.921875q2.140625 0 3.3125 1.03125q1.171875 1.03125 1.171875 2.875l0 7.96875l-1.796875 0zm-3.1875 -1.015625q2.125 0 3.1875 -1.4375l0 -2.171875q-1.0625 -1.453125 -3.1875 -1.453125q-1.28125 0 -2.078125 0.71875q-0.78125 0.703125 -0.78125 1.828125q0 1.109375 0.78125 1.8125q0.796875 0.703125 2.078125 0.703125zm16.491714 1.015625l-4.1875 -5.203125l-1.921875 1.890625l0 3.3125l-1.796875 0l0 -16.015625l1.796875 0l0 10.59375l6.109375 -6.171875l2.265625 0l-5.125 5.25l5.15625 6.34375l-2.296875 0zm9.492218 0.28125q-2.515625 0 -4.125 -1.703125q-1.609375 -1.71875 -1.609375 -4.390625q0 -2.6875 1.609375 -4.375q1.609375 -1.6875 4.125 -1.6875q2.53125 0 4.125 1.6875q1.609375 1.6875 1.609375 4.375q0 2.671875 -1.609375 4.390625q-1.59375 1.703125 -4.125 1.703125zm0 -1.59375q1.6875 0 2.765625 -1.265625q1.078125 -1.265625 1.078125 -3.234375q0 -1.9375 -1.078125 -3.1875q-1.078125 -1.265625 -2.765625 -1.265625q-1.671875 0 -2.765625 1.25q-1.09375 1.234375 -1.09375 3.203125q0 2.0 1.078125 3.25q1.078125 1.25 2.78125 1.25zm16.493591 1.3125l0 -1.625q-0.671875 0.765625 -1.75 1.34375q-1.078125 0.5625 -2.375 0.5625q-3.703125 0 -3.703125 -3.6875l0 -8.1875l1.796875 0l0 7.640625q0 1.359375 0.625 2.0q0.625 0.640625 1.96875 0.640625q1.0625 0 2.0 -0.53125q0.9375 -0.53125 1.4375 -1.234375l0 -8.515625l1.796875 0l0 11.59375l-1.796875 0zm8.3333435 0.28125q-2.578125 0 -2.578125 -2.703125l0 -7.59375l-1.921875 0l0 -1.578125l1.921875 0l0 -3.171875l1.796875 0l0 3.171875l2.359375 0l0 1.578125l-2.359375 0l0 7.203125q0 0.65625 0.28125 1.078125q0.296875 0.421875 0.90625 0.421875q0.734375 0 1.21875 -0.484375l0.53125 1.34375q-0.75 0.734375 -2.15625 0.734375zm15.576096 0q-3.875 0 -6.15625 -2.53125l1.1875 -1.515625q0.984375 1.109375 2.296875 1.703125q1.328125 0.578125 2.734375 0.578125q1.734375 0 2.75 -0.765625q1.015625 -0.78125 1.015625 -2.0q0 -1.890625 -2.96875 -2.703125q-3.53125 -0.9375 -4.5 -1.484375q-0.96875 -0.5625 -1.484375 -1.390625q-0.515625 -0.828125 -0.515625 -1.984375q0 -1.921875 1.546875 -3.171875q1.546875 -1.265625 3.9375 -1.265625q3.609375 0 5.6875 2.234375l-1.1875 1.46875q-1.734375 -1.921875 -4.640625 -1.921875q-1.4375 0 -2.359375 0.703125q-0.921875 0.6875 -0.921875 1.84375q0 0.828125 0.765625 1.421875q0.765625 0.59375 2.234375 0.953125q3.40625 0.9375 4.390625 1.53125q1.0 0.59375 1.53125 1.484375q0.546875 0.875 0.546875 2.109375q0 2.21875 -1.609375 3.46875q-1.59375 1.234375 -4.28125 1.234375zm16.626465 -0.28125l0 -1.625q-0.671875 0.765625 -1.75 1.34375q-1.078125 0.5625 -2.375 0.5625q-3.703125 0 -3.703125 -3.6875l0 -8.1875l1.796875 0l0 7.640625q0 1.359375 0.625 2.0q0.625 0.640625 1.96875 0.640625q1.0625 0 2.0 -0.53125q0.9375 -0.53125 1.4375 -1.234375l0 -8.515625l1.796875 0l0 11.59375l-1.796875 0zm5.3958435 0l0 -11.59375l1.796875 0l0 1.875q1.609375 -2.109375 3.875 -2.109375l0 1.84375l-0.71875 -0.078125q-0.828125 0 -1.8125 0.59375q-0.984375 0.59375 -1.34375 1.265625l0 8.203125l-1.796875 0zm11.013733 0l-4.8125 -11.59375l1.9375 0l3.859375 9.5l3.84375 -9.5l1.96875 0l-4.828125 11.59375l-1.96875 0zm13.900589 0.28125q-2.609375 0 -4.265625 -1.703125q-1.640625 -1.703125 -1.640625 -4.390625q0 -2.5625 1.625 -4.3125q1.640625 -1.75 4.09375 -1.75q2.5 0 4.03125 1.734375q1.53125 1.71875 1.53125 4.484375l0 0.453125l-9.375 0q0.09375 1.765625 1.28125 2.890625q1.1875 1.109375 2.890625 1.109375q2.109375 0 3.578125 -1.453125l0.859375 1.171875q-1.78125 1.765625 -4.609375 1.765625zm3.59375 -6.8125q0 -1.609375 -1.0625 -2.734375q-1.046875 -1.125 -2.75 -1.125q-1.609375 0 -2.671875 1.125q-1.0625 1.125 -1.109375 2.734375l7.59375 0zm4.324463 9.4375q0.390625 0.1875 0.984375 0.1875q0.609375 0 1.015625 -0.25q0.40625 -0.25 0.71875 -0.96875l0.765625 -1.75l-4.84375 -11.71875l1.9375 0l3.859375 9.5l3.84375 -9.5l1.96875 0l-5.8125 13.953125q-0.953125 2.296875 -3.40625 2.34375q-0.6875 0 -1.3125 -0.171875l0.28125 -1.625z" fill-rule="nonzero"/><path fill="#1c3aa9" d="m41.72441 154.59476l173.95155 0l0 2.1599884l-173.95155 0l0 -2.1599884z" fill-rule="nonzero"/><a xlink:href="https://www.google.com/url?q=https://docs.google.com/forms/d/1SOHryj_Eo2QwcnLuhCWh6i9CM4tVwAeIB0ApsxcXQxo/edit&amp;sa=D&amp;ust=1548048595509000&amp;usg=AFQjCNEnBNtagvCgZPeNqtYJpkX9yW0CAg" target="_blank" rel="noreferrer"><path fill="transparent" fill-opacity="0" d="m41.72441 129.99475l173.95155 0l0 28.800003l-173.95155 0l0 -28.800003z" fill-rule="nonzero"/></a></g></svg>